<?xml version="1.0" encoding="UTF-8"?>
<!DOCTYPE svg PUBLIC "-//W3C//DTD SVG 1.1//EN" "http://www.w3.org/Graphics/SVG/1.1/DTD/svg11.dtd">
<!-- Creator: CorelDRAW -->
<svg xmlns="http://www.w3.org/2000/svg" xml:space="preserve" width="8.5in" height="11in" version="1.1" style="shape-rendering:geometricPrecision; text-rendering:geometricPrecision; image-rendering:optimizeQuality; fill-rule:evenodd; clip-rule:evenodd"
viewBox="0 0 8500 11000"
 xmlns:xlink="http://www.w3.org/1999/xlink"
 xmlns:xodm="http://www.corel.com/coreldraw/odm/2003">
 <defs>
  <style type="text/css">
   <![CDATA[
    .str0 {stroke:#622D2B;stroke-width:27.78;stroke-miterlimit:2.61313}
    .fil0 {fill:none}
    .fil1 {fill:#62453E;fill-rule:nonzero}
   ]]>
  </style>
 </defs>
 <g id="Layer_x0020_1">
  <metadata id="CorelCorpID_0Corel-Layer"/>
  <g id="_2195088153664">
   <polyline class="fil0 str0" points="-12378.33,-3566.04 -12598.94,-3719.33 -12511.3,-3990.93 -12511.07,-3990.94 "/>
   <polyline class="fil0 str0" points="-12398.94,-3502.61 -12619.56,-3655.9 -12531.92,-3927.51 -12531.69,-3927.52 "/>
   <polyline class="fil0 str0" points="-12650.39,-3569.04 -12538.39,-3657.47 -12426.4,-3745.91 -12467.49,-3877.21 -12508.59,-4008.51 "/>
   <polyline class="fil0 str0" points="-12623.97,-3484.4 -12511.98,-3572.83 -12399.99,-3661.27 -12441.08,-3792.57 -12482.17,-3923.87 "/>
  </g>
  <path class="fil1" d="M-12255.47 -3548.07l-40.43 -377.94 69.23 0 23.07 315.44 7.45 0 28.26 -219.59 62.32 0 -22.44 72.59 -10.63 0 -21.26 209.5 -95.57 0zm141.36 0l-21.35 -209.5 -10.63 0 -21.8 -72.59 62.32 0 27.62 219.59 7.45 0 23.17 -315.44 69.23 0 -40.43 377.94 -95.57 0z"/>
  <path id="_1" class="fil1" d="M-11877.99 -3686.44l0 -64.69 67.87 0c16.35,0 28.98,-4.91 38.07,-14.54 9,-9.63 13.54,-23.17 13.54,-40.61 0,-17.54 -4.54,-31.17 -13.54,-40.7 -9.09,-9.63 -21.71,-14.35 -38.07,-14.35l-66.87 0 -6.36 -64.69 73.22 0c40.61,0 72.05,9.9 94.21,29.8 22.17,19.9 33.25,48.06 33.25,84.67 0,39.52 -11.08,70.32 -33.25,92.21 -22.17,21.9 -53.6,32.89 -94.21,32.89l-67.87 0zm-66.59 138.37l0 -377.94 70.32 0 0 377.94 -70.32 0zm191.97 0l-71.31 -177.8 73.95 0 81.22 177.8 -83.86 0z"/>
  <path id="_2" class="fil1" d="M-11533.3 -3548.07l0 -377.94 70.32 0 0 377.94 -70.32 0zm-107.75 -313.26l0 -64.69 285.82 0 0 64.69 -285.82 0z"/>
  <path id="_3" class="fil1" d="M-11239.12 -3686.44l0 -64.69 67.87 0c16.35,0 28.98,-4.91 38.07,-14.54 9,-9.63 13.54,-23.17 13.54,-40.61 0,-17.54 -4.54,-31.17 -13.54,-40.7 -9.09,-9.63 -21.71,-14.35 -38.07,-14.35l-66.87 0 -6.36 -64.69 73.22 0c40.61,0 72.05,9.9 94.21,29.8 22.17,19.9 33.25,48.06 33.25,84.67 0,39.52 -11.08,70.32 -33.25,92.21 -22.17,21.9 -53.6,32.89 -94.21,32.89l-67.87 0zm-66.59 138.37l0 -377.94 70.32 0 0 377.94 -70.32 0zm191.97 0l-71.31 -177.8 73.95 0 81.22 177.8 -83.86 0z"/>
  <path id="_4" class="fil1" d="M-10859.27 -3542.72c-13.54,0 -24.98,-4.72 -34.34,-14.17 -9.45,-9.36 -14.08,-20.72 -14.08,-34.07 0,-13.63 4.63,-25.17 14.08,-34.61 9.36,-9.36 20.81,-14.08 34.34,-14.08 13.44,0 24.89,4.72 34.34,14.08 9.36,9.45 14.08,20.9 14.08,34.34 0,13.35 -4.72,24.71 -14.08,34.25 -9.45,9.44 -20.9,14.26 -34.34,14.26z"/>
 </g>
</svg>
